<svg width="17" height="17" viewBox="0 0 17 17" fill="none" xmlns="http://www.w3.org/2000/svg">
<g clip-path="url(#clip0)">
<path d="M15.7941 11.5855C15.7941 12.8875 15.3395 14.0198 14.5439 14.8124C13.7484 15.6049 12.6119 16.0012 11.3617 16.0012H5.1677C3.91753 16.0012 2.78102 15.6049 1.98546 14.8124C1.13307 14.0198 0.735291 12.8875 0.735291 11.5855V5.35813C0.735291 2.75397 2.49689 0.942383 5.1677 0.942383H11.4185C12.7255 0.942383 13.8052 1.39528 14.6008 2.18785C15.3963 2.98042 15.7941 4.05605 15.7941 5.35813V11.5855ZM11.1012 2.82474H5.37611C4.54337 2.82474 3.81472 3.08497 3.3463 3.55339C2.87788 4.02181 2.61764 4.75046 2.61764 5.58321V11.3083C2.61764 12.1411 2.87788 12.8697 3.39834 13.3902C3.91881 13.8586 4.59542 14.1189 5.42816 14.1189H11.1012C11.934 14.1189 12.6626 13.8586 13.1311 13.3902C13.6515 12.9218 13.9118 12.1931 13.9118 11.3604V5.63525C13.9118 4.80251 13.6515 4.1259 13.1831 3.60544C12.6626 3.08497 11.986 2.82474 11.1012 2.82474Z" fill="#000"/>
<path d="M12.0294 5.64847C11.5 5.64847 11.0882 5.2367 11.0882 4.70729C11.0882 4.17788 11.5 3.76611 12.0294 3.76611C12.5588 3.76611 12.9706 4.17788 12.9706 4.70729C12.9706 5.2367 12.5588 5.64847 12.0294 5.64847ZM8.23723 12.2367C6.14878 12.2367 4.5 10.5204 4.5 8.472C4.5 6.36819 6.20374 4.70729 8.23723 4.70729C10.2707 4.70729 12.0294 6.36819 12.0294 8.472C12.0294 10.5758 10.3257 12.2367 8.23723 12.2367ZM8.26471 10.3543C9.3043 10.3543 10.1471 9.51159 10.1471 8.472C10.1471 7.4324 9.3043 6.58964 8.26471 6.58964C7.22511 6.58964 6.38235 7.4324 6.38235 8.472C6.38235 9.51159 7.22511 10.3543 8.26471 10.3543Z" fill="#000"/>
</g>
<defs>
<clipPath id="clip0">
<rect width="16" height="16" fill="#000" transform="translate(0.5 0.00146484)"/>
</clipPath>
</defs>
</svg>
