<?xml version="1.0" encoding="UTF-8"?>
<!DOCTYPE svg PUBLIC "-//W3C//DTD SVG 1.1//EN" "http://www.w3.org/Graphics/SVG/1.1/DTD/svg11.dtd">
<!-- Creator: CorelDRAW 2019 (64-Bit) -->
<svg xmlns="http://www.w3.org/2000/svg" xml:space="preserve" width="160" height="50" version="1.1" fill="#fff"
viewBox="0 0 4233.32 1303.8"
 xmlns:xlink="http://www.w3.org/1999/xlink">

  <path  d="M566.96 1288.39l-105.07 0 -453.86 -1225.48 126.99 -55.81 379.26 1019.62 378.7 -1019.62 126.98 55.81 -453 1225.48zm672.72 13.66l0 -1282.99 790.7 0 0 145.22 -654.02 0 0 396.34 398.05 0 0 145.21 -398.05 0 0 451.01 654.02 0 0 145.21 -790.7 0zm1905.33 -316.61l-57.52 124.42c-87.91,123.56 -162.51,155.82 -306.08,192.19l-443.04 0 0 -1282.99 443.04 0c64.17,14.57 124.03,36.31 180.8,63.21 51.4,36.17 92.79,79.08 125.28,128.42 61.3,97.37 96.79,198.72 115.32,302.66 7.23,96.34 10.97,193.29 0,293.85 -9.88,70.31 -28.9,122.39 -57.8,178.24zm-80.58 -444.47c-18.49,-94.51 -38.79,-159.48 -95.67,-248.85 -22.24,-34.26 -49.86,-62.15 -81.15,-85.71 -39.29,-21.35 -79.5,-34.77 -120.44,-42.13l-290.43 0 0 992.56 283.88 0c122.11,-28.49 135.14,-41.06 211.16,-134.72 11.89,-18.56 31.34,-60.88 46.24,-91.64 19.58,-44.7 34.59,-84.45 46.41,-145.21 8.18,-84.67 4.32,-164.41 0,-244.3zm379.97 761.08l0 -1282.99 790.7 0 0 145.22 -654.03 0 0 396.34 398.06 0 0 145.21 -398.06 0 0 451.01 654.03 0 0 145.21 -790.7 0z"/>

</svg>
