<?xml version="1.0" encoding="UTF-8"?>
<!DOCTYPE svg PUBLIC "-//W3C//DTD SVG 1.1//EN" "http://www.w3.org/Graphics/SVG/1.1/DTD/svg11.dtd">
<!-- Creator: CorelDRAW 2020 (64-Bit) -->
<svg xmlns="http://www.w3.org/2000/svg" xml:space="preserve" width="90px" height="90px" version="1.1" style="shape-rendering:geometricPrecision; text-rendering:geometricPrecision; image-rendering:optimizeQuality; fill-rule:evenodd; clip-rule:evenodd"
viewBox="0 0 90 90"
 xmlns:xlink="http://www.w3.org/1999/xlink"
 xmlns:xodm="http://www.corel.com/coreldraw/odm/2003">
 <defs>
  <style type="text/css">
   <![CDATA[
    .str0 {stroke:#898989;stroke-width:2.36;stroke-miterlimit:22.9256}
    .fil1 {fill:none}
    .fil0 {fill:#EBECEC}
   ]]>
  </style>
 </defs>
 <g id="Слой_x0020_1">
  <metadata id="CorelCorpID_0Corel-Layer"/>
  <g id="_2461003611856">
   <path class="fil0" d="M29.53 27.39c-0.43,0.28 -1.03,0.8 -1.46,1.13l-0.71 0.6c-0.5,0.43 -0.99,0.99 -1.4,1.49 -1.55,1.87 -2.44,3.9 -1.79,6.48 0.17,0.69 0.41,1.3 0.66,1.95 0.12,0.29 0.75,1.65 0.76,1.78 0.12,0.1 0.14,0.17 0.19,0.3 0.05,0.12 0.1,0.23 0.15,0.36 0.16,0.19 0.43,0.8 0.58,1.06 0.1,0.17 0.56,0.97 0.58,1.09l0.86 1.37 0.7 1.06c0.14,0.2 0.22,0.34 0.35,0.53 0.12,0.17 0.28,0.33 0.32,0.52 0.16,0.09 0.64,0.83 0.79,1.04 0.16,0.21 0.7,0.87 0.77,1.07 0.12,0.06 0.37,0.43 0.48,0.57 0.51,0.64 1.42,1.74 1.96,2.3l1.02 1.13c0.81,0.79 1.56,1.6 2.43,2.33 0.11,0.09 0.15,0.17 0.26,0.26l2.27 1.89c0.21,0.11 0.36,0.25 0.57,0.4l1.02 0.75c0.12,0.09 0.41,0.29 0.5,0.39 0.17,0.08 0.53,0.36 0.73,0.49 0.23,0.16 0.45,0.3 0.7,0.47 0.15,0.11 1.35,0.85 1.39,0.91 0.23,0.09 0.51,0.28 0.74,0.42 0.14,0.09 0.21,0.13 0.35,0.21 0.15,0.09 0.22,0.1 0.3,0.23 0.13,0.01 0.57,0.27 0.73,0.37 0.11,0.07 0.64,0.34 0.68,0.4l1.41 0.74c0.01,0 0.02,0.02 0.03,0.03 0.15,0.01 1.21,0.51 1.36,0.64 0.29,0.08 1.25,0.49 1.48,0.63 0.2,0.05 0.5,0.19 0.7,0.27 0.23,0.09 0.46,0.15 0.67,0.26 0.78,0.21 1.45,0.47 2.35,0.65 0.9,0.17 1.77,0.21 2.68,0.03 0.8,-0.15 1.58,-0.44 2.18,-0.76 0.62,-0.34 0.84,-0.51 1.38,-0.87 0.17,-0.11 0.3,-0.24 0.46,-0.3 0.04,-0.09 0.56,-0.48 0.67,-0.57l1.31 -1.22c0.19,-0.2 0.37,-0.43 0.56,-0.65 0.5,-0.55 1.18,-1.57 1.44,-2.3 0.08,-0.24 0.18,-0.85 0.24,-0.96l0 -0.7c-0.16,-0.31 0.02,-0.25 -0.4,-0.87 -0.24,-0.36 -1.16,-1.33 -1.53,-1.61l-1.37 -1.15c-0.11,-0.09 -0.22,-0.18 -0.34,-0.27 -0.16,-0.12 -1.33,-1 -1.37,-1.07 -0.2,-0.07 -0.47,-0.29 -0.67,-0.43l-0.58 -0.42c-0.01,0 -0.02,0 -0.03,-0.02 0,-0.02 -0.02,-0.02 -0.02,-0.03 -0.18,-0.05 -0.87,-0.53 -1.09,-0.67 -0.19,-0.12 -0.35,-0.23 -0.54,-0.35 -0.09,-0.05 -0.47,-0.27 -0.52,-0.32l-1.17 -0.52c-0.01,0 -0.02,-0.01 -0.03,-0.01l-0.08 -0.04 -0.8 0c-0.05,0.03 -0.01,0.02 -0.11,0.06 -0.59,0.24 -0.62,0.1 -1.22,0.84 -0.51,0.63 -0.55,0.84 -0.79,1.16 -0.1,0.13 -0.04,0.07 -0.12,0.13 -0.03,0.2 -0.25,0.49 -0.36,0.7 -0.12,0.24 -0.24,0.48 -0.36,0.72 -0.26,0.61 -0.82,1.59 -1.17,1.97 -0.15,0.17 -0.63,0.53 -0.91,0.67 -0.39,0.19 -0.76,0.31 -1.24,0.32 -0.57,-0.01 -1.14,-0.2 -1.47,-0.47 -0.3,-0.11 -0.78,-0.43 -1.07,-0.6 -0.21,-0.13 -0.91,-0.52 -0.99,-0.66 -0.32,-0.05 -2.15,-1.42 -2.18,-1.47 -0.31,-0.11 -1.07,-0.8 -1.36,-1.01l-2.7 -2.44 -2.66 -2.94c-0.24,-0.31 -0.61,-0.73 -0.79,-1.08 -0.13,-0.07 -1.27,-1.86 -1.29,-2.14 -0.3,-0.26 -0.47,-1.05 -0.48,-1.41 0.01,-0.77 0.3,-1.42 0.68,-1.84 0.15,-0.17 0.46,-0.37 0.75,-0.51 0.16,-0.08 0.71,-0.34 0.87,-0.37 0.2,-0.12 0.47,-0.21 0.73,-0.32 0.22,-0.09 0.48,-0.21 0.7,-0.29 0.15,-0.1 1.22,-0.73 1.41,-0.76 0.1,-0.16 0.85,-0.5 1.22,-1.03 0.04,-0.06 0.1,-0.16 0.14,-0.24 0.03,-0.06 0.03,-0.06 0.07,-0.12 0.06,-0.11 0.02,-0.05 0.07,-0.1l0.04 -0.31c0.01,-0.72 -0.25,-1.08 -0.42,-1.63 -0.05,-0.05 -0.34,-0.66 -0.4,-0.78 -0.08,-0.17 -0.38,-0.66 -0.38,-0.81 -0.18,-0.14 -0.3,-0.49 -0.42,-0.68 -0.12,-0.19 -0.34,-0.52 -0.39,-0.71 -0.1,-0.08 -0.59,-0.87 -0.7,-1.05 -0.22,-0.33 -0.5,-0.67 -0.71,-1l-1.07 -1.32c-0.47,-0.52 -0.44,-0.42 -0.82,-0.78 -0.42,-0.39 -0.82,-0.69 -1.36,-0.96 -1.4,-0.7 -2.09,-0.58 -3.61,0.19 -0.57,0.29 -0.5,0.29 -0.99,0.58z"/>
   <circle class="fil1 str0" cx="44.9" cy="44.89" r="43.11"/>
  </g>
 </g>
</svg>
