<?xml version="1.0" encoding="UTF-8"?>
<!DOCTYPE svg PUBLIC "-//W3C//DTD SVG 1.1//EN" "http://www.w3.org/Graphics/SVG/1.1/DTD/svg11.dtd">
<!-- Creator: CorelDRAW 2020 (64-Bit) -->
<svg xmlns="http://www.w3.org/2000/svg" xml:space="preserve" width="58px" height="55px" version="1.1" style="shape-rendering:geometricPrecision; text-rendering:geometricPrecision; image-rendering:optimizeQuality; fill-rule:evenodd; clip-rule:evenodd"
viewBox="0 0 58 55"
 xmlns:xlink="http://www.w3.org/1999/xlink"
 xmlns:xodm="http://www.corel.com/coreldraw/odm/2003">
 <defs>
  <style type="text/css">
   <![CDATA[
    .fil0 {fill:#EBECEC}
   ]]>
  </style>
 </defs>
 <g id="Слой_x0020_1">
  <metadata id="CorelCorpID_0Corel-Layer"/>
  <path class="fil0" d="M8.42 3.14c-0.57,0.37 -1.38,1.06 -1.95,1.51l-0.94 0.79c-0.67,0.57 -1.32,1.32 -1.87,1.99 -2.05,2.49 -3.24,5.18 -2.37,8.6 0.23,0.93 0.54,1.74 0.87,2.6 0.16,0.39 1.01,2.2 1.02,2.37 0.15,0.14 0.18,0.23 0.25,0.41 0.06,0.15 0.13,0.3 0.19,0.47 0.22,0.25 0.58,1.06 0.78,1.41 0.13,0.22 0.74,1.29 0.77,1.44l1.14 1.83 0.93 1.41c0.19,0.26 0.29,0.45 0.47,0.71 0.16,0.22 0.38,0.43 0.42,0.68 0.21,0.12 0.85,1.11 1.06,1.38 0.21,0.28 0.92,1.17 1.02,1.44 0.16,0.07 0.49,0.56 0.64,0.75 0.67,0.85 1.88,2.32 2.6,3.06l1.36 1.5c1.08,1.05 2.08,2.13 3.23,3.1 0.15,0.12 0.21,0.22 0.34,0.34l3.03 2.52c0.28,0.14 0.48,0.33 0.75,0.54l1.37 0.99c0.15,0.12 0.54,0.38 0.66,0.52 0.23,0.1 0.7,0.47 0.97,0.65 0.31,0.21 0.59,0.4 0.92,0.63 0.21,0.13 1.8,1.13 1.85,1.2 0.32,0.13 0.68,0.38 0.98,0.56 0.2,0.12 0.29,0.18 0.47,0.28 0.2,0.12 0.3,0.14 0.4,0.31 0.18,0.02 0.76,0.36 0.98,0.49 0.14,0.09 0.84,0.46 0.9,0.53l1.88 0.99c0,-0.01 0.02,0.02 0.03,0.04 0.2,0.01 1.61,0.68 1.82,0.85 0.38,0.11 1.65,0.65 1.96,0.84 0.27,0.06 0.66,0.24 0.93,0.35 0.31,0.12 0.62,0.21 0.9,0.35 1.03,0.28 1.92,0.63 3.12,0.86 1.19,0.23 2.35,0.28 3.56,0.05 1.07,-0.21 2.11,-0.6 2.9,-1.02 0.82,-0.44 1.12,-0.68 1.83,-1.15 0.23,-0.15 0.4,-0.33 0.62,-0.41 0.06,-0.11 0.75,-0.63 0.89,-0.75l1.74 -1.62c0.25,-0.27 0.49,-0.57 0.75,-0.86 0.67,-0.74 1.57,-2.1 1.91,-3.07 0.11,-0.32 0.24,-1.12 0.32,-1.28l0 -0.93c-0.21,-0.4 0.03,-0.33 -0.53,-1.16 -0.32,-0.47 -1.55,-1.76 -2.03,-2.13l-1.82 -1.53c-0.16,-0.12 -0.3,-0.24 -0.45,-0.36 -0.22,-0.16 -1.78,-1.32 -1.83,-1.43 -0.27,-0.08 -0.63,-0.39 -0.89,-0.57l-0.78 -0.55c0,0 -0.02,-0.01 -0.03,-0.03 -0.01,-0.03 -0.02,-0.03 -0.03,-0.04 -0.24,-0.07 -1.15,-0.7 -1.45,-0.89 -0.25,-0.16 -0.47,-0.31 -0.71,-0.46 -0.12,-0.07 -0.63,-0.36 -0.7,-0.43l-1.55 -0.69c-0.02,0 -0.04,-0.01 -0.05,-0.02l-0.1 -0.05 -1.07 0c-0.07,0.05 -0.01,0.02 -0.14,0.07 -0.79,0.33 -0.82,0.14 -1.62,1.13 -0.68,0.84 -0.74,1.12 -1.06,1.54 -0.12,0.17 -0.05,0.09 -0.16,0.17 -0.03,0.26 -0.33,0.66 -0.47,0.94 -0.17,0.31 -0.33,0.64 -0.48,0.95 -0.34,0.82 -1.09,2.12 -1.55,2.62 -0.21,0.23 -0.84,0.7 -1.22,0.89 -0.51,0.25 -1,0.41 -1.65,0.42 -0.76,-0.01 -1.51,-0.26 -1.96,-0.62 -0.39,-0.14 -1.02,-0.57 -1.42,-0.8 -0.28,-0.16 -1.2,-0.68 -1.31,-0.87 -0.43,-0.07 -2.86,-1.89 -2.9,-1.96 -0.41,-0.15 -1.42,-1.07 -1.8,-1.34l-3.6 -3.25 -3.54 -3.91c-0.32,-0.4 -0.81,-0.97 -1.05,-1.43 -0.17,-0.1 -1.69,-2.48 -1.72,-2.85 -0.39,-0.34 -0.62,-1.4 -0.63,-1.87 0.01,-1.03 0.39,-1.9 0.9,-2.45 0.21,-0.23 0.61,-0.5 1,-0.68 0.22,-0.11 0.95,-0.46 1.16,-0.49 0.26,-0.16 0.62,-0.28 0.97,-0.42 0.29,-0.13 0.63,-0.29 0.93,-0.4 0.2,-0.12 1.62,-0.96 1.88,-1 0.12,-0.21 1.12,-0.67 1.62,-1.38 0.05,-0.07 0.13,-0.2 0.18,-0.31 0.05,-0.08 0.04,-0.08 0.09,-0.17 0.09,-0.14 0.03,-0.05 0.1,-0.12l0.05 -0.41c0.02,-0.96 -0.33,-1.45 -0.56,-2.18 -0.07,-0.06 -0.45,-0.87 -0.53,-1.03 -0.11,-0.23 -0.5,-0.88 -0.51,-1.07 -0.23,-0.19 -0.4,-0.66 -0.55,-0.91 -0.16,-0.25 -0.45,-0.7 -0.52,-0.95 -0.14,-0.1 -0.78,-1.16 -0.93,-1.39 -0.3,-0.44 -0.67,-0.9 -0.95,-1.34l-1.42 -1.75c-0.62,-0.7 -0.58,-0.56 -1.09,-1.03 -0.55,-0.52 -1.1,-0.93 -1.81,-1.29 -1.86,-0.93 -2.78,-0.76 -4.8,0.27 -0.76,0.38 -0.66,0.37 -1.31,0.76z"/>
 </g>
</svg>
