<?xml version="1.0" encoding="UTF-8"?>
<!DOCTYPE svg PUBLIC "-//W3C//DTD SVG 1.1//EN" "http://www.w3.org/Graphics/SVG/1.1/DTD/svg11.dtd">
<!-- Creator: CorelDRAW 2020 (64-Bit) -->
<svg xmlns="http://www.w3.org/2000/svg" xml:space="preserve" width="83px" height="106px" version="1.1" style="shape-rendering:geometricPrecision; text-rendering:geometricPrecision; image-rendering:optimizeQuality; fill-rule:evenodd; clip-rule:evenodd"
viewBox="0 0 83 106.71"
 xmlns:xlink="http://www.w3.org/1999/xlink"
 xmlns:xodm="http://www.corel.com/coreldraw/odm/2003">
 <defs>
  <style type="text/css">
   <![CDATA[
    .fil0 {fill:#F9F9FA}
   ]]>
  </style>
 </defs>
 <g id="Слой_x0020_1">
  <metadata id="CorelCorpID_0Corel-Layer"/>
  <path class="fil0" d="M13.31 62.58c11.69,-11.44 -13.27,-21.67 7.47,-42.38 10.92,-10.91 33.48,-10.13 41.95,3.55 9.3,15 0.46,38.07 -12.11,41.59 -11.83,3.31 -14.01,-7 -11.13,-16.32 2.54,-8.26 6.88,-15.24 0.27,-21.37 -8.87,-2.85 -13.56,1.39 -15.58,8.52 -1.45,5.12 -0.08,7.91 0.21,12.07 0.61,8.92 -10.26,30.97 -6.61,55.98 8.45,-2.62 14.45,-26.13 15.81,-33.69 4.56,2.53 4.58,4.97 12.41,5.5 14.95,1.02 25.59,-7.09 31.7,-20.38 19.15,-41.68 -37.34,-70.44 -67.21,-39.44 -11.25,11.67 -16.6,37.46 2.82,46.37z"/>
 </g>
</svg>
