<svg width="21" height="12" viewBox="0 0 21 12" fill="none" xmlns="http://www.w3.org/2000/svg">
<path d="M20.0598 0.807465C20.1998 0.342465 20.0598 0.00146484 19.3978 0.00146484H17.2048C16.6468 0.00146484 16.3918 0.296465 16.2518 0.620465C16.2518 0.620465 15.1368 3.33946 13.5568 5.10246C13.0468 5.61546 12.8138 5.77746 12.5358 5.77746C12.3968 5.77746 12.1948 5.61547 12.1948 5.15047V0.807465C12.1948 0.249465 12.0338 0.00146484 11.5688 0.00146484H8.12277C7.77477 0.00146484 7.56477 0.259465 7.56477 0.505465C7.56477 1.03347 8.35477 1.15547 8.43577 2.64347V5.87146C8.43577 6.57846 8.30877 6.70747 8.02877 6.70747C7.28577 6.70747 5.47777 3.97847 4.40477 0.854465C4.19577 0.247465 3.98477 0.00246525 3.42477 0.00246525H1.23277C0.605774 0.00246525 0.480774 0.297465 0.480774 0.621465C0.480774 1.20347 1.22377 4.08346 3.94177 7.89246C5.75377 10.4935 8.30477 11.9035 10.6288 11.9035C12.0218 11.9035 12.1938 11.5905 12.1938 11.0505V9.08447C12.1938 8.45846 12.3268 8.33247 12.7678 8.33247C13.0918 8.33247 13.6498 8.49646 14.9508 9.74946C16.4368 11.2355 16.6828 11.9025 17.5178 11.9025H19.7098C20.3358 11.9025 20.6488 11.5895 20.4688 10.9715C20.2718 10.3565 19.5618 9.46146 18.6198 8.40246C18.1078 7.79846 17.3428 7.14847 17.1098 6.82347C16.7848 6.40447 16.8788 6.21947 17.1098 5.84747C17.1108 5.84847 19.7818 2.08647 20.0598 0.807465Z" fill="#000"/>
</svg>
